<svg width="2049.000000" height="2236.000000" viewBox="0 0 2049 2236" fill="none" xmlns="http://www.w3.org/2000/svg">
 <defs>
  <linearGradient id="customGradient" x1="0%" y1="0%" x2="100%" y2="0%">
   <stop offset="0%" style="stop-color:rgb(255,69,88);stop-opacity:1" />
   <stop offset="100%" style="stop-color:rgb(254,134,110);stop-opacity:1" />
  </linearGradient>
 </defs>
 <path d="M1709.43 1501.81L1421.4 2235.12L711.39 1940.06L962.89 1299.75C983.07 1248.38 1039.82 1223.53 1089.67 1244.24L1709.43 1501.81ZM527.27 1009.24C723.33 1090.73 817.92 1320.6 738.55 1522.68L737.95 1524.21C658.58 1726.29 435.3 1824.05 239.24 1742.57C43.17 1661.08 -51.42 1431.21 27.95 1229.13L28.55 1227.6C107.93 1025.52 331.21 927.76 527.27 1009.24ZM1219.67 294.65L968.16 934.96C947.99 986.33 891.23 1011.18 841.39 990.47L221.63 732.9L509.66 -0.43L1219.67 294.65ZM2048.31 639.03L1760.28 1372.36L1140.52 1114.79C1090.68 1094.06 1066.63 1035.64 1086.81 984.26L1338.31 343.96L2048.31 639.03Z" fill="url(#customGradient)" fill-rule="evenodd"/>
</svg>