<svg width="472" height="499" viewBox="0 0 472 499" fill="none" xmlns="http://www.w3.org/2000/svg">
<g clip-path="url(#clip0_1_42)">
<path fill-rule="evenodd" clip-rule="evenodd" d="M29.8 4.79999H189.8C202 4.79999 211.8 14.6 211.8 26.8V405.8C211.8 418 202 427.8 189.8 427.8H29.8C17.6 427.8 7.79999 418 7.79999 405.8V26.8C7.79999 14.6 17.7 4.79999 29.8 4.79999Z" fill="url(#paint0_linear_1_42)"/>
<path d="M64.8 227.3V202H74.1C75.8 202 77.3 202.3 78.6 202.8C79.9 203.3 80.8 204.1 81.5 205.1C82.2 206.1 82.5 207.2 82.5 208.6C82.5 209.8 82.2 210.9 81.7 211.8C81.2 212.7 80.4 213.5 79.5 214C80.8 214.5 81.8 215.3 82.5 216.4C83.2 217.5 83.6 218.8 83.6 220.2C83.6 221.7 83.2 222.9 82.4 224C81.6 225.1 80.5 225.9 79.2 226.5C77.9 227.1 76.2 227.4 74.3 227.4L64.8 227.3ZM70 206.4V212.2H73.5C74.7 212.2 75.6 212 76.2 211.5C76.8 211 77.2 210.3 77.2 209.3C77.2 208.4 76.9 207.6 76.2 207.1C75.6 206.6 74.7 206.4 73.5 206.4H70ZM70 223H74C75.3 223 76.4 222.7 77.1 222.1C77.8 221.5 78.2 220.7 78.2 219.6C78.2 218.5 77.8 217.7 77.1 217.1C76.4 216.5 75.3 216.2 74 216.2H70V223ZM86.9 227.3V200.7H92V227.3H86.9ZM105.1 227.9C103.7 227.9 102.4 227.7 101.2 227.2C100 226.7 99 226 98.1 225.1C97.2 224.2 96.5 223.1 96 221.9C95.5 220.7 95.3 219.4 95.3 217.9C95.3 216.4 95.6 215.2 96.1 214C96.6 212.8 97.3 211.8 98.2 210.9C99.1 210 100.2 209.3 101.4 208.8C102.6 208.3 103.9 208.1 105.4 208.1C106.8 208.1 108.1 208.3 109.3 208.8C110.5 209.3 111.5 210 112.4 210.9C113.3 211.8 114 212.9 114.5 214C115 215.2 115.2 216.5 115.2 217.9C115.2 219.3 114.9 220.6 114.4 221.9C113.9 223.1 113.2 224.2 112.3 225.1C111.4 226 110.3 226.7 109.1 227.2C107.9 227.6 106.6 227.9 105.1 227.9ZM105.2 223.4C106.1 223.4 106.9 223.2 107.7 222.7C108.4 222.2 109 221.6 109.4 220.8C109.8 220 110 219 110 218C110 217 109.8 216 109.4 215.2C109 214.4 108.4 213.7 107.7 213.3C107 212.8 106.2 212.6 105.2 212.6C104.2 212.6 103.5 212.8 102.7 213.3C102 213.8 101.4 214.4 101 215.2C100.6 216 100.4 217 100.4 218C100.4 219 100.6 220 101 220.8C101.4 221.6 102 222.3 102.7 222.7C103.5 223.2 104.3 223.4 105.2 223.4ZM126.3 226.8C125.1 226.8 124 226.6 122.9 226.1C121.9 225.6 120.9 225 120.2 224.1C119.4 223.2 118.8 222.2 118.4 221.1C118 220 117.7 218.8 117.7 217.5C117.7 216.1 117.9 214.9 118.4 213.7C118.8 212.6 119.5 211.6 120.3 210.7C121.1 209.9 122.1 209.2 123.1 208.7C124.2 208.2 125.3 208 126.6 208C127.8 208 128.9 208.2 129.9 208.7C130.9 209.2 131.7 209.9 132.4 210.8L132.5 208.5H137.2V225.1C137.2 226.5 137 227.9 136.5 229.1C136.1 230.3 135.4 231.3 134.5 232.2C133.6 233.1 132.6 233.7 131.4 234.2C130.2 234.7 128.9 234.9 127.4 234.9C126 234.9 124.7 234.7 123.6 234.2C122.5 233.8 121.5 233.2 120.6 232.4C119.8 231.6 119.1 230.7 118.6 229.7L123.4 228.5C123.8 229.2 124.4 229.7 125.1 230.1C125.8 230.5 126.6 230.7 127.4 230.7C128.3 230.7 129.2 230.5 129.8 230.1C130.5 229.7 131 229.1 131.4 228.4C131.8 227.7 132 226.8 132 225.8V224.3C131.3 225.2 130.5 225.8 129.5 226.3C128.6 226.6 127.5 226.8 126.3 226.8ZM127.6 222.4C128.5 222.4 129.3 222.2 130 221.7C130.7 221.3 131.3 220.6 131.6 219.9C132 219.2 132.2 218.3 132.2 217.4C132.2 216.5 132 215.6 131.6 214.9C131.2 214.2 130.6 213.6 130 213.1C129.3 212.7 128.5 212.4 127.6 212.4C126.7 212.4 125.9 212.6 125.2 213.1C124.5 213.5 123.9 214.2 123.6 214.9C123.2 215.6 123 216.5 123 217.4C123 218.3 123.2 219.2 123.6 219.9C124 220.6 124.6 221.2 125.2 221.7C125.9 222.2 126.7 222.4 127.6 222.4ZM141.2 227.3V208.5H145.9L146.1 211.3C146.6 210.3 147.2 209.5 148 209C148.8 208.5 149.8 208.2 150.9 208.2C151.2 208.2 151.6 208.2 151.9 208.3C152.2 208.4 152.5 208.4 152.8 208.5L152.3 213.4C152 213.3 151.8 213.2 151.5 213.2C151.2 213.2 150.9 213.1 150.7 213.1C149.3 213.1 148.2 213.5 147.5 214.4C146.8 215.2 146.4 216.4 146.4 218V227.2L141.2 227.3Z" fill="white"/>
<path fill-rule="evenodd" clip-rule="evenodd" d="M204.3 401.7C204.3 412.3 196.5 421.4 185.9 421.4H34.9C24.3 421.4 15.1 412.3 15.1 401.7V29.8C15.1 19.2 24.3 11.5 34.9 11.5H52.3C56 11.5 57.4 11.1 57.6 15.8C57.7 18.2 58.6 20.1 60 21.7C61.4 23.2 63.4 24.5 65.6 25.2C67.1 25.7 68.8 26.1 70.5 26.1H150.3C151.9 26.1 153.6 25.6 155.2 25.1C157.5 24.4 159.4 23.2 160.8 21.7C162.2 20.2 163.1 18.4 163.2 15.9C163.4 11.2 164.8 11.5 168.5 11.5H185.8C196.4 11.5 204.2 19.2 204.2 29.8L204.3 401.7ZM98.7 13.3H122.3C123.3 13.3 124.1 13.9 124.1 14.8C124.1 15.7 123.3 16.3 122.3 16.3H98.7C97.7 16.3 96.9 15.7 96.9 14.8C96.9 13.9 97.7 13.3 98.7 13.3ZM134.7 13.9C134.7 15.4 133.5 16.6 132 16.6C130.5 16.6 129.3 15.4 129.3 13.9C129.3 12.4 130.5 11.2 132 11.2C133.5 11.2 134.7 12.4 134.7 13.9ZM215.8 98.8V31C215.8 13.9 201.9 0 184.8 0H34C16.3 0 1.89998 14.5 1.89998 32.2V57C0.899979 57 0.0999756 57.8 0.0999756 58.8V71.5C0.0999756 72.5 0.899979 73.3 1.89998 73.3V88.5C0.899979 88.5 0.0999756 89.3 0.0999756 90.3V117.6C0.0999756 118.6 0.899979 119.4 1.89998 119.4V128.5C0.899979 128.5 0.0999756 129.3 0.0999756 130.3V157.6C0.0999756 158.6 0.899979 159.4 1.89998 159.4V403C1.89998 420.7 16.4 435.3 34.1 435.3H184.8C201.9 435.3 215.8 421.3 215.8 404.3V149.2H216.4C217.4 149.2 218.2 148.4 218.2 147.4V100.6C218.2 99.6 217.4 98.8 216.4 98.8H215.8Z" fill="black"/>
<path fill-rule="evenodd" clip-rule="evenodd" d="M204.3 401.7C204.3 412.3 196.5 421.4 185.9 421.4H34.9C24.3 421.4 15.1 412.3 15.1 401.7V29.8C15.1 19.2 24.3 11.5 34.9 11.5H52.3C56 11.5 57.4 11.1 57.6 15.8C57.7 18.2 58.6 20.1 60 21.7C61.4 23.2 63.4 24.5 65.6 25.2C67.1 25.7 68.8 26.1 70.5 26.1H150.3C151.9 26.1 153.6 25.6 155.2 25.1C157.5 24.4 159.4 23.2 160.8 21.7C162.2 20.2 163.1 18.4 163.2 15.9C163.4 11.2 164.8 11.5 168.5 11.5H185.8C196.4 11.5 204.2 19.2 204.2 29.8L204.3 401.7ZM98.7 13.3H122.3C123.3 13.3 124.1 13.9 124.1 14.8C124.1 15.7 123.3 16.3 122.3 16.3H98.7C97.7 16.3 96.9 15.7 96.9 14.8C96.9 13.9 97.7 13.3 98.7 13.3ZM134.7 13.9C134.7 15.4 133.5 16.6 132 16.6C130.5 16.6 129.3 15.4 129.3 13.9C129.3 12.4 130.5 11.2 132 11.2C133.5 11.2 134.7 12.4 134.7 13.9ZM215.8 98.8V31C215.8 13.9 201.9 0 184.8 0H34C16.3 0 1.89998 14.5 1.89998 32.2V57C0.899979 57 0.0999756 57.8 0.0999756 58.8V71.5C0.0999756 72.5 0.899979 73.3 1.89998 73.3V88.5C0.899979 88.5 0.0999756 89.3 0.0999756 90.3V117.6C0.0999756 118.6 0.899979 119.4 1.89998 119.4V128.5C0.899979 128.5 0.0999756 129.3 0.0999756 130.3V157.6C0.0999756 158.6 0.899979 159.4 1.89998 159.4V403C1.89998 420.7 16.4 435.3 34.1 435.3H184.8C201.9 435.3 215.8 421.3 215.8 404.3V149.2H216.4C217.4 149.2 218.2 148.4 218.2 147.4V100.6C218.2 99.6 217.4 98.8 216.4 98.8H215.8Z" fill="#1D1D25"/>
<path fill-rule="evenodd" clip-rule="evenodd" d="M122.3 13.3H98.7C97.7 13.3 96.9 13.9 96.9 14.8C96.9 15.7 97.7 16.3 98.7 16.3H122.3C123.3 16.3 124.1 15.7 124.1 14.8C124.1 14 123.3 13.3 122.3 13.3ZM132.1 11.2C130.6 11.8 129.9 13.4 130.4 14.9C130.9 16.4 132.6 17.1 134.1 16.6C135.6 16.6 136.8 15.4 136.8 13.9C136.8 12.4 135.6 11.2 134.1 11.2" fill="black"/>
<path fill-rule="evenodd" clip-rule="evenodd" d="M282.8 67.8H442.8C455 67.8 464.8 77.6 464.8 89.8V468.8C464.8 481 455 490.8 442.8 490.8H282.8C270.6 490.8 260.8 481 260.8 468.8V89.8C260.8 77.6 270.7 67.8 282.8 67.8Z" fill="url(#paint1_linear_1_42)"/>
<path fill-rule="evenodd" clip-rule="evenodd" d="M289.8 73.8H435.1C447.3 73.8 457.1 83.6 457.1 95.8V466.1C457.1 478.3 447.3 488.1 435.1 488.1H289.8C277.6 488.1 267.8 478.3 267.8 466.1V95.8C267.8 83.6 277.7 73.8 289.8 73.8Z" fill="white"/>
<path fill-rule="evenodd" clip-rule="evenodd" d="M289.8 73.8H435.1C447.3 73.8 457.1 83.6 457.1 95.8V125.1C457.1 137.3 447.3 147.1 435.1 147.1H289.8C277.6 147.1 267.8 137.3 267.8 125.1V95.8C267.8 83.6 277.7 73.8 289.8 73.8Z" fill="url(#paint2_linear_1_42)"/>
<path fill-rule="evenodd" clip-rule="evenodd" d="M283.143 120.03H441.743C443.943 120.03 445.743 121.83 445.743 124.03V174.43C445.743 176.63 443.943 178.43 441.743 178.43H283.143C280.943 178.43 279.143 176.63 279.143 174.43V124.03C279.143 121.83 280.943 120.03 283.143 120.03Z" fill="black"/>
<path fill-rule="evenodd" clip-rule="evenodd" d="M283.143 120.03H441.743C443.943 120.03 445.743 121.83 445.743 124.03V174.43C445.743 176.63 443.943 178.43 441.743 178.43H283.143C280.943 178.43 279.143 176.63 279.143 174.43V124.03C279.143 121.83 280.943 120.03 283.143 120.03Z" fill="white"/>
<path fill-rule="evenodd" clip-rule="evenodd" d="M283.143 192.43H441.743C443.943 192.43 445.743 194.23 445.743 196.43V246.83C445.743 249.03 443.943 250.83 441.743 250.83H283.143C280.943 250.83 279.143 249.03 279.143 246.83V196.43C279.143 194.23 280.943 192.43 283.143 192.43Z" fill="black"/>
<path fill-rule="evenodd" clip-rule="evenodd" d="M283.143 192.43H441.743C443.943 192.43 445.743 194.23 445.743 196.43V246.83C445.743 249.03 443.943 250.83 441.743 250.83H283.143C280.943 250.83 279.143 249.03 279.143 246.83V196.43C279.143 194.23 280.943 192.43 283.143 192.43Z" fill="white"/>
<path fill-rule="evenodd" clip-rule="evenodd" d="M283.143 264.83H441.743C443.943 264.83 445.743 266.63 445.743 268.83V319.23C445.743 321.43 443.943 323.23 441.743 323.23H283.143C280.943 323.23 279.143 321.43 279.143 319.23V268.83C279.143 266.63 280.943 264.83 283.143 264.83Z" fill="black"/>
<path fill-rule="evenodd" clip-rule="evenodd" d="M283.143 264.83H441.743C443.943 264.83 445.743 266.63 445.743 268.83V319.23C445.743 321.43 443.943 323.23 441.743 323.23H283.143C280.943 323.23 279.143 321.43 279.143 319.23V268.83C279.143 266.63 280.943 264.83 283.143 264.83Z" fill="white"/>
<path fill-rule="evenodd" clip-rule="evenodd" d="M283.143 337.23H441.743C443.943 337.23 445.743 339.03 445.743 341.23V391.63C445.743 393.83 443.943 395.63 441.743 395.63H283.143C280.943 395.63 279.143 393.83 279.143 391.63V341.23C279.143 339.03 280.943 337.23 283.143 337.23Z" fill="black"/>
<path fill-rule="evenodd" clip-rule="evenodd" d="M283.143 337.23H441.743C443.943 337.23 445.743 339.03 445.743 341.23V391.63C445.743 393.83 443.943 395.63 441.743 395.63H283.143C280.943 395.63 279.143 393.83 279.143 391.63V341.23C279.143 339.03 280.943 337.23 283.143 337.23Z" fill="white"/>
<path fill-rule="evenodd" clip-rule="evenodd" d="M283.143 409.63H441.743C443.943 409.63 445.743 411.43 445.743 413.63V464.03C445.743 466.23 443.943 468.03 441.743 468.03H283.143C280.943 468.03 279.143 466.23 279.143 464.03V413.63C279.143 411.43 280.943 409.63 283.143 409.63Z" fill="black"/>
<path fill-rule="evenodd" clip-rule="evenodd" d="M283.143 409.63H441.743C443.943 409.63 445.743 411.43 445.743 413.63V464.03C445.743 466.23 443.943 468.03 441.743 468.03H283.143C280.943 468.03 279.143 466.23 279.143 464.03V413.63C279.143 411.43 280.943 409.63 283.143 409.63Z" fill="white"/>
<path d="M317.8 290.3V265H327.1C328.8 265 330.3 265.3 331.6 265.8C332.9 266.3 333.8 267.1 334.5 268.1C335.2 269.1 335.5 270.2 335.5 271.6C335.5 272.8 335.2 273.9 334.7 274.8C334.2 275.7 333.4 276.5 332.5 277C333.8 277.5 334.8 278.3 335.5 279.4C336.2 280.5 336.6 281.8 336.6 283.2C336.6 284.7 336.2 285.9 335.4 287C334.6 288.1 333.5 288.9 332.2 289.5C330.9 290.1 329.2 290.4 327.3 290.4L317.8 290.3ZM323 269.4V275.2H326.5C327.7 275.2 328.6 275 329.2 274.5C329.8 274 330.2 273.3 330.2 272.3C330.2 271.4 329.9 270.6 329.2 270.1C328.6 269.6 327.7 269.4 326.5 269.4H323ZM323 286H327C328.3 286 329.4 285.7 330.1 285.1C330.8 284.5 331.2 283.7 331.2 282.6C331.2 281.5 330.8 280.7 330.1 280.1C329.4 279.5 328.3 279.2 327 279.2H323V286ZM339.9 290.3V263.7H345V290.3H339.9ZM358.1 290.9C356.7 290.9 355.4 290.7 354.2 290.2C353 289.7 352 289 351.1 288.1C350.2 287.2 349.5 286.1 349 284.9C348.5 283.7 348.3 282.4 348.3 280.9C348.3 279.4 348.6 278.2 349.1 277C349.6 275.8 350.3 274.8 351.2 273.9C352.1 273 353.2 272.3 354.4 271.8C355.6 271.3 356.9 271.1 358.4 271.1C359.8 271.1 361.1 271.3 362.3 271.8C363.5 272.3 364.5 273 365.4 273.9C366.3 274.8 367 275.9 367.5 277C368 278.2 368.2 279.5 368.2 280.9C368.2 282.3 367.9 283.6 367.4 284.9C366.9 286.1 366.2 287.2 365.3 288.1C364.4 289 363.3 289.7 362.1 290.2C360.9 290.6 359.6 290.9 358.1 290.9ZM358.2 286.4C359.1 286.4 359.9 286.2 360.7 285.7C361.4 285.2 362 284.6 362.4 283.8C362.8 283 363 282 363 281C363 280 362.8 279 362.4 278.2C362 277.4 361.4 276.7 360.7 276.3C360 275.8 359.2 275.6 358.2 275.6C357.2 275.6 356.5 275.8 355.7 276.3C355 276.8 354.4 277.4 354 278.2C353.6 279 353.4 280 353.4 281C353.4 282 353.6 283 354 283.8C354.4 284.6 355 285.3 355.7 285.7C356.5 286.2 357.3 286.4 358.2 286.4ZM379.3 289.8C378.1 289.8 377 289.6 375.9 289.1C374.9 288.6 373.9 288 373.2 287.1C372.4 286.2 371.8 285.2 371.4 284.1C371 283 370.7 281.8 370.7 280.5C370.7 279.1 370.9 277.9 371.4 276.7C371.8 275.6 372.5 274.6 373.3 273.7C374.1 272.9 375.1 272.2 376.1 271.7C377.2 271.2 378.3 271 379.6 271C380.8 271 381.9 271.2 382.9 271.7C383.9 272.2 384.7 272.9 385.4 273.8L385.5 271.5H390.2V288.1C390.2 289.5 390 290.9 389.5 292.1C389.1 293.3 388.4 294.3 387.5 295.2C386.6 296.1 385.6 296.7 384.4 297.2C383.2 297.7 381.9 297.9 380.4 297.9C379 297.9 377.7 297.7 376.6 297.2C375.5 296.8 374.5 296.2 373.6 295.4C372.8 294.6 372.1 293.7 371.6 292.7L376.4 291.5C376.8 292.2 377.4 292.7 378.1 293.1C378.8 293.5 379.6 293.7 380.4 293.7C381.3 293.7 382.2 293.5 382.8 293.1C383.5 292.7 384 292.1 384.4 291.4C384.8 290.7 385 289.8 385 288.8V287.3C384.3 288.2 383.5 288.8 382.5 289.3C381.6 289.6 380.5 289.8 379.3 289.8ZM380.6 285.4C381.5 285.4 382.3 285.2 383 284.7C383.7 284.3 384.3 283.6 384.6 282.9C385 282.2 385.2 281.3 385.2 280.4C385.2 279.5 385 278.6 384.6 277.9C384.2 277.2 383.6 276.6 383 276.1C382.3 275.7 381.5 275.4 380.6 275.4C379.7 275.4 378.9 275.6 378.2 276.1C377.5 276.5 376.9 277.2 376.6 277.9C376.2 278.6 376 279.5 376 280.4C376 281.3 376.2 282.2 376.6 282.9C377 283.6 377.6 284.2 378.2 284.7C378.9 285.2 379.7 285.4 380.6 285.4ZM394.2 290.3V271.5H398.9L399.1 274.3C399.6 273.3 400.2 272.5 401 272C401.8 271.5 402.8 271.2 403.9 271.2C404.2 271.2 404.6 271.2 404.9 271.3C405.2 271.4 405.5 271.4 405.8 271.5L405.3 276.4C405 276.3 404.8 276.2 404.5 276.2C404.2 276.2 403.9 276.1 403.7 276.1C402.3 276.1 401.2 276.5 400.5 277.4C399.8 278.2 399.4 279.4 399.4 281V290.2L394.2 290.3Z" fill="white"/>
<path fill-rule="evenodd" clip-rule="evenodd" d="M457.3 464.7C457.3 475.3 449.5 484.4 438.9 484.4H287.9C277.3 484.4 268.1 475.3 268.1 464.7V92.8C268.1 82.2 277.3 74.5 287.9 74.5H305.3C309 74.5 310.4 74.1 310.6 78.8C310.7 81.2 311.6 83.1 313 84.7C314.4 86.2 316.4 87.5 318.6 88.2C320.1 88.7 321.8 89.1 323.5 89.1H403.3C404.9 89.1 406.6 88.6 408.2 88.1C410.5 87.4 412.4 86.2 413.8 84.7C415.2 83.2 416.1 81.4 416.2 78.9C416.4 74.2 417.8 74.5 421.5 74.5H438.8C449.4 74.5 457.2 82.2 457.2 92.8L457.3 464.7ZM351.7 76.3H375.3C376.3 76.3 377.1 76.9 377.1 77.8C377.1 78.7 376.3 79.3 375.3 79.3H351.7C350.7 79.3 349.9 78.7 349.9 77.8C349.9 76.9 350.7 76.3 351.7 76.3ZM387.7 76.9C387.7 78.4 386.5 79.6 385 79.6C383.5 79.6 382.3 78.4 382.3 76.9C382.3 75.4 383.5 74.2 385 74.2C386.5 74.2 387.7 75.4 387.7 76.9ZM468.8 161.8V94C468.8 76.9 454.9 63 437.8 63H287C269.3 63 254.9 77.5 254.9 95.2V120C253.9 120 253.1 120.8 253.1 121.8V134.5C253.1 135.5 253.9 136.3 254.9 136.3V151.5C253.9 151.5 253.1 152.3 253.1 153.3V180.6C253.1 181.6 253.9 182.4 254.9 182.4V191.5C253.9 191.5 253.1 192.3 253.1 193.3V220.6C253.1 221.6 253.9 222.4 254.9 222.4V466C254.9 483.7 269.4 498.3 287.1 498.3H437.8C454.9 498.3 468.8 484.3 468.8 467.3V212.2H469.4C470.4 212.2 471.2 211.4 471.2 210.4V163.6C471.2 162.6 470.4 161.8 469.4 161.8H468.8Z" fill="black"/>
<path fill-rule="evenodd" clip-rule="evenodd" d="M457.3 464.7C457.3 475.3 449.5 484.4 438.9 484.4H287.9C277.3 484.4 268.1 475.3 268.1 464.7V92.8C268.1 82.2 277.3 74.5 287.9 74.5H305.3C309 74.5 310.4 74.1 310.6 78.8C310.7 81.2 311.6 83.1 313 84.7C314.4 86.2 316.4 87.5 318.6 88.2C320.1 88.7 321.8 89.1 323.5 89.1H403.3C404.9 89.1 406.6 88.6 408.2 88.1C410.5 87.4 412.4 86.2 413.8 84.7C415.2 83.2 416.1 81.4 416.2 78.9C416.4 74.2 417.8 74.5 421.5 74.5H438.8C449.4 74.5 457.2 82.2 457.2 92.8L457.3 464.7ZM351.7 76.3H375.3C376.3 76.3 377.1 76.9 377.1 77.8C377.1 78.7 376.3 79.3 375.3 79.3H351.7C350.7 79.3 349.9 78.7 349.9 77.8C349.9 76.9 350.7 76.3 351.7 76.3ZM387.7 76.9C387.7 78.4 386.5 79.6 385 79.6C383.5 79.6 382.3 78.4 382.3 76.9C382.3 75.4 383.5 74.2 385 74.2C386.5 74.2 387.7 75.4 387.7 76.9ZM468.8 161.8V94C468.8 76.9 454.9 63 437.8 63H287C269.3 63 254.9 77.5 254.9 95.2V120C253.9 120 253.1 120.8 253.1 121.8V134.5C253.1 135.5 253.9 136.3 254.9 136.3V151.5C253.9 151.5 253.1 152.3 253.1 153.3V180.6C253.1 181.6 253.9 182.4 254.9 182.4V191.5C253.9 191.5 253.1 192.3 253.1 193.3V220.6C253.1 221.6 253.9 222.4 254.9 222.4V466C254.9 483.7 269.4 498.3 287.1 498.3H437.8C454.9 498.3 468.8 484.3 468.8 467.3V212.2H469.4C470.4 212.2 471.2 211.4 471.2 210.4V163.6C471.2 162.6 470.4 161.8 469.4 161.8H468.8Z" fill="#1D1D25"/>
<path fill-rule="evenodd" clip-rule="evenodd" d="M375.3 76.3H351.7C350.7 76.3 349.9 76.9 349.9 77.8C349.9 78.7 350.7 79.3 351.7 79.3H375.3C376.3 79.3 377.1 78.7 377.1 77.8C377.1 77 376.3 76.3 375.3 76.3ZM385.1 74.2C383.6 74.8 382.9 76.4 383.4 77.9C383.9 79.4 385.6 80.1 387.1 79.6C388.6 79.6 389.8 78.4 389.8 76.9C389.8 75.4 388.6 74.2 387.1 74.2" fill="black"/>
</g>
<defs>
<linearGradient id="paint0_linear_1_42" x1="86.0885" y1="4.79159" x2="260.556" y2="366.531" gradientUnits="userSpaceOnUse">
<stop stop-color="#FF8F71"/>
<stop offset="1" stop-color="#FF3E55"/>
</linearGradient>
<linearGradient id="paint1_linear_1_42" x1="339.096" y1="67.776" x2="513.564" y2="429.515" gradientUnits="userSpaceOnUse">
<stop stop-color="#FF8F71"/>
<stop offset="1" stop-color="#FF3E55"/>
</linearGradient>
<linearGradient id="paint2_linear_1_42" x1="267.802" y1="104.929" x2="436.158" y2="170.1" gradientUnits="userSpaceOnUse">
<stop stop-color="#FF8F71"/>
<stop offset="1" stop-color="#FF3E55"/>
</linearGradient>
<clipPath id="clip0_1_42">
<rect width="471.2" height="498.3" fill="white"/>
</clipPath>
</defs>
</svg>
