<svg width="101.000000" height="40.000000" viewBox="0 0 101 40" fill="none" xmlns="http://www.w3.org/2000/svg" xmlns:xlink="http://www.w3.org/1999/xlink">
	<desc>
			Created with Pixso.
	</desc>
	<defs/>
	<path id="logo" d="M0 30.32L0 0.52L10.65 0.52C12.63 0.52 14.34 0.83 15.79 1.46C17.23 2.09 18.35 2.99 19.13 4.15C19.92 5.31 20.31 6.67 20.31 8.24C20.31 9.67 20.01 10.92 19.4 12C18.79 13.09 17.93 13.94 16.84 14.54C18.33 15.13 19.48 16.06 20.31 17.33C21.14 18.6 21.55 20.11 21.55 21.84C21.55 23.58 21.11 25.08 20.23 26.33C19.35 27.59 18.11 28.57 16.51 29.27C14.92 29.97 13.03 30.32 10.85 30.32L0 30.32ZM5.94 5.68L5.94 12.52L9.99 12.52C11.34 12.52 12.38 12.24 13.11 11.66C13.84 11.09 14.2 10.24 14.2 9.12C14.2 8 13.83 7.15 13.11 6.56C12.38 5.98 11.34 5.68 9.99 5.68L5.94 5.68ZM5.94 25.16L10.57 25.16C12.11 25.16 13.3 24.82 14.14 24.15C14.98 23.48 15.4 22.51 15.4 21.25C15.4 20 14.98 19.03 14.14 18.36C13.3 17.69 12.11 17.35 10.57 17.35L5.94 17.35L5.94 25.16ZM25.22 30.32L25.22 -0.99L31 -0.99L31 30.32L25.22 30.32ZM46.12 30.95C44.49 30.95 42.99 30.66 41.62 30.07C40.26 29.5 39.06 28.68 38.02 27.61C36.98 26.54 36.19 25.3 35.65 23.9C35.09 22.47 34.8 20.92 34.8 19.24C34.8 17.56 35.09 16.01 35.67 14.6C36.24 13.2 37.04 11.96 38.09 10.89C39.13 9.81 40.34 8.98 41.72 8.41C43.11 7.82 44.63 7.53 46.28 7.53C47.91 7.53 49.41 7.82 50.78 8.41C52.14 8.98 53.34 9.8 54.37 10.87C55.41 11.94 56.2 13.17 56.75 14.56C57.31 15.97 57.6 17.52 57.6 19.2C57.6 20.88 57.31 22.43 56.73 23.86C56.17 25.27 55.36 26.51 54.31 27.59C53.27 28.67 52.06 29.5 50.68 30.07C49.29 30.66 47.77 30.95 46.12 30.95ZM46.2 25.66C47.25 25.66 48.18 25.38 49.01 24.82C49.83 24.26 50.49 23.5 50.97 22.54C51.45 21.57 51.69 20.47 51.69 19.24C51.69 18.01 51.45 16.91 50.97 15.95C50.49 14.98 49.83 14.22 49.01 13.66C48.18 13.1 47.25 12.82 46.2 12.82C45.15 12.82 44.22 13.1 43.39 13.66C42.57 14.22 41.91 14.98 41.43 15.94C40.95 16.91 40.71 18.01 40.71 19.24C40.71 20.47 40.95 21.57 41.43 22.53C41.91 23.5 42.57 24.26 43.39 24.82C44.22 25.38 45.15 25.66 46.2 25.66ZM70.35 29.69C69.01 29.7 67.72 29.42 66.49 28.85C65.3 28.3 64.26 27.52 63.38 26.52C62.5 25.53 61.81 24.37 61.31 23.04C60.82 21.71 60.57 20.28 60.57 18.74C60.57 17.14 60.82 15.67 61.33 14.31C61.82 12.98 62.53 11.8 63.48 10.76C64.4 9.75 65.47 8.96 66.7 8.39C67.92 7.82 69.25 7.53 70.68 7.53C72.09 7.53 73.35 7.82 74.48 8.39C75.63 8.97 76.57 9.81 77.29 10.89L77.41 8.16L82.74 8.16L82.74 27.68C82.74 29.38 82.47 30.94 81.94 32.34C81.4 33.74 80.64 34.94 79.64 35.95C78.63 36.97 77.45 37.75 76.11 38.28C74.75 38.82 73.24 39.09 71.59 39.09C69.97 39.09 68.51 38.84 67.22 38.32C65.95 37.82 64.82 37.1 63.83 36.16C62.86 35.23 62.11 34.15 61.56 32.92L67.09 31.54C67.57 32.34 68.21 32.98 69.01 33.45C69.8 33.91 70.68 34.14 71.68 34.14C72.75 34.14 73.68 33.9 74.46 33.41C75.25 32.92 75.86 32.23 76.3 31.35C76.74 30.47 76.96 29.44 76.96 28.26L76.96 26.46C76.21 27.48 75.26 28.27 74.13 28.83C72.99 29.41 71.73 29.69 70.35 29.69ZM71.76 24.49C72.78 24.49 73.68 24.23 74.46 23.71C75.27 23.18 75.89 22.48 76.34 21.61C76.81 20.73 77.04 19.73 77.04 18.61C77.04 17.49 76.81 16.49 76.34 15.61C75.89 14.74 75.27 14.04 74.46 13.51C73.68 12.99 72.78 12.73 71.76 12.73C70.74 12.73 69.84 12.99 69.05 13.51C68.25 14.04 67.62 14.74 67.17 15.61C66.71 16.49 66.47 17.49 66.47 18.61C66.47 19.73 66.71 20.73 67.17 21.61C67.62 22.48 68.25 23.18 69.05 23.71C69.84 24.23 70.74 24.49 71.76 24.49ZM87.37 30.32L87.37 8.16L92.69 8.16L92.9 11.52C93.45 10.34 94.19 9.44 95.13 8.81C96.06 8.18 97.17 7.86 98.43 7.86C98.82 7.86 99.2 7.9 99.59 7.97C99.97 8.04 100.32 8.13 100.62 8.24L100 14.03C99.7 13.92 99.39 13.85 99.07 13.8C98.75 13.76 98.43 13.74 98.1 13.74C96.5 13.74 95.28 14.24 94.43 15.23C93.57 16.22 93.15 17.63 93.15 19.45L93.15 30.32L87.37 30.32Z" fill="#FFFFFF" fill-opacity="1.000000" fill-rule="nonzero"/>
</svg>
